<svg width="24" height="25" viewBox="0 0 24 25" fill="none" xmlns="http://www.w3.org/2000/svg">
<path d="M12 2.5C6.48 2.5 2 6.98 2 12.5C2 18.02 6.48 22.5 12 22.5C17.52 22.5 22 18.02 22 12.5C22 6.98 17.52 2.5 12 2.5ZM13 19.5H11V17.5H13V19.5ZM15.07 11.75L14.17 12.67C13.45 13.4 13 14 13 15.5H11V15C11 13.9 11.45 12.9 12.17 12.17L13.41 10.91C13.78 10.55 14 10.05 14 9.5C14 8.4 13.1 7.5 12 7.5C10.9 7.5 10 8.4 10 9.5H8C8 7.29 9.79 5.5 12 5.5C14.21 5.5 16 7.29 16 9.5C16 10.38 15.64 11.18 15.07 11.75Z" fill="#00A1BE"/>
</svg>
