<svg width="88" height="88" viewBox="0 0 88 88" fill="none" xmlns="http://www.w3.org/2000/svg">
<g filter="url(#filter0_d_760_2222)">
<rect x="4" width="80" height="80" rx="40" fill="#00A1BE" shape-rendering="crispEdges"/>
<path d="M33.1111 41.5556V29.1111C33.1111 28.286 33.4389 27.4947 34.0223 26.9112C34.6058 26.3278 35.3971 26 36.2222 26H54.8889C55.714 26 56.5053 26.3278 57.0888 26.9112C57.6722 27.4947 58 28.286 58 29.1111V49.3333C58 50.8889 57.0667 54 53.3333 54M53.3333 54H34.6667C33.1111 54 30 53.0667 30 49.3333V46.2222H48.6667V49.3333C48.6667 53.0667 51.7778 54 53.3333 54Z" stroke="#F9FEFE" stroke-width="3" stroke-linecap="round" stroke-linejoin="round"/>
</g>
<defs>
<filter id="filter0_d_760_2222" x="0" y="0" width="88" height="88" filterUnits="userSpaceOnUse" color-interpolation-filters="sRGB">
<feFlood flood-opacity="0" result="BackgroundImageFix"/>
<feColorMatrix in="SourceAlpha" type="matrix" values="0 0 0 0 0 0 0 0 0 0 0 0 0 0 0 0 0 0 127 0" result="hardAlpha"/>
<feOffset dy="4"/>
<feGaussianBlur stdDeviation="2"/>
<feComposite in2="hardAlpha" operator="out"/>
<feColorMatrix type="matrix" values="0 0 0 0 0 0 0 0 0 0 0 0 0 0 0 0 0 0 0.25 0"/>
<feBlend mode="normal" in2="BackgroundImageFix" result="effect1_dropShadow_760_2222"/>
<feBlend mode="normal" in="SourceGraphic" in2="effect1_dropShadow_760_2222" result="shape"/>
</filter>
</defs>
</svg>
