<svg width="88" height="88" viewBox="0 0 88 88" fill="none" xmlns="http://www.w3.org/2000/svg">
<g filter="url(#filter0_d_760_2228)">
<rect x="4" width="80" height="80" rx="40" fill="#00A1BE" shape-rendering="crispEdges"/>
<path d="M56.5 26H58.2C58.2 25.0611 57.4389 24.3 56.5 24.3V26ZM31.5 26V24.3C30.5611 24.3 29.8 25.0611 29.8 26H31.5ZM37.75 54L37.0249 52.4624C36.3052 52.8018 35.9172 53.595 36.0911 54.3715C36.265 55.148 36.9543 55.7 37.75 55.7V54ZM50.25 54V55.7C51.0457 55.7 51.735 55.148 51.9089 54.3715C52.0828 53.595 51.6948 52.8018 50.9751 52.4624L50.25 54ZM44 42.4368C49.135 42.4368 52.8118 40.6001 55.1371 37.4251C57.3937 34.344 58.2 30.241 58.2 26H54.8C54.8 29.8982 54.0438 33.1636 52.3941 35.4161C50.8132 37.5748 48.24 39.0368 44 39.0368V42.4368ZM56.5 24.3H31.5V27.7H56.5V24.3ZM29.8 26C29.8 30.241 30.6063 34.344 32.8629 37.4251C35.1882 40.6001 38.865 42.4368 44 42.4368V39.0368C39.76 39.0368 37.1868 37.5748 35.6059 35.4161C33.9562 33.1636 33.2 29.8982 33.2 26H29.8ZM42.3 40.7368V51.0526H45.7V40.7368H42.3ZM37.75 55.7H50.25V52.3H37.75V55.7ZM50.9751 52.4624L44.7251 49.515L43.2749 52.5902L49.5249 55.5376L50.9751 52.4624ZM43.2749 49.515L37.0249 52.4624L38.4751 55.5376L44.7251 52.5902L43.2749 49.515Z" fill="#C9FBF3"/>
</g>
<defs>
<filter id="filter0_d_760_2228" x="0" y="0" width="88" height="88" filterUnits="userSpaceOnUse" color-interpolation-filters="sRGB">
<feFlood flood-opacity="0" result="BackgroundImageFix"/>
<feColorMatrix in="SourceAlpha" type="matrix" values="0 0 0 0 0 0 0 0 0 0 0 0 0 0 0 0 0 0 127 0" result="hardAlpha"/>
<feOffset dy="4"/>
<feGaussianBlur stdDeviation="2"/>
<feComposite in2="hardAlpha" operator="out"/>
<feColorMatrix type="matrix" values="0 0 0 0 0 0 0 0 0 0 0 0 0 0 0 0 0 0 0.25 0"/>
<feBlend mode="normal" in2="BackgroundImageFix" result="effect1_dropShadow_760_2228"/>
<feBlend mode="normal" in="SourceGraphic" in2="effect1_dropShadow_760_2228" result="shape"/>
</filter>
</defs>
</svg>
