<svg width="88" height="88" viewBox="0 0 88 88" fill="none" xmlns="http://www.w3.org/2000/svg">
<g filter="url(#filter0_d_760_2251)">
<rect x="4" width="80" height="80" rx="40" fill="#00A1BE" shape-rendering="crispEdges"/>
<path fill-rule="evenodd" clip-rule="evenodd" d="M26.6389 33.5875C26.6389 29.2583 34.4114 25.75 44 25.75C53.5887 25.75 61.3611 29.2583 61.3611 33.5875V46.4125C61.3611 50.7416 53.5887 54.25 44 54.25C34.4114 54.25 26.6389 50.7416 26.6389 46.4125V33.5875ZM49.2838 29.0035V29.002C49.3358 29.0112 49.3879 29.0202 49.4407 29.0289C49.3884 29.0203 49.3361 29.0118 49.2838 29.0035ZM38.7161 29.0038V29.0017C38.6642 29.011 38.6122 29.0202 38.5593 29.0289C38.6115 29.0204 38.6637 29.0121 38.7161 29.0038ZM37.4542 29.2349C37.6409 29.1945 37.8276 29.1541 38.0225 29.1187H38.0211C37.9726 29.1274 37.9223 29.1353 37.8719 29.1433C37.8071 29.1535 37.7422 29.1637 37.6806 29.1757C37.6136 29.1888 37.5544 29.2047 37.4952 29.2207C37.4446 29.2343 37.3941 29.248 37.3387 29.2598C37.3772 29.2515 37.4157 29.2432 37.4542 29.2349ZM50.0581 29.1322C50.2078 29.161 50.3536 29.1928 50.4993 29.2246C50.5533 29.2364 50.6072 29.2482 50.6614 29.2598C50.606 29.248 50.5554 29.2343 50.5049 29.2207C50.4457 29.2047 50.3865 29.1888 50.3195 29.1757C50.2579 29.1637 50.193 29.1535 50.1282 29.1433C50.1048 29.1396 50.0814 29.1359 50.0581 29.1322ZM38.0705 31.9929L36.6817 29.4208C32.316 30.4511 29.7786 32.2167 29.37 33.2925C29.3299 33.398 29.3099 33.4977 29.3099 33.5875C29.3099 34.6277 32.0088 36.731 37.0462 37.8425C37.7525 37.2381 38.2646 36.4137 38.5112 35.4842C38.8051 34.2872 38.6581 33.0474 38.0705 31.9929ZM58.6902 33.5875C58.6902 32.5729 56.1127 30.5523 51.3184 29.4208L49.9148 31.9915C49.3406 33.046 49.1937 34.2857 49.4875 35.4827C49.7301 36.4143 50.2424 37.2402 50.9512 37.8425C55.9899 36.7325 58.6902 34.6277 58.6902 33.5875ZM44 41.425C37.8034 41.425 32.3814 39.9558 29.3099 37.7513V46.4125C29.3099 47.8603 34.4581 51.4 44 51.4C53.542 51.4 58.6902 47.8603 58.6902 46.4125V37.7513C55.6186 39.9558 50.1966 41.425 44 41.425Z" fill="#F9FEFE"/>
</g>
<defs>
<filter id="filter0_d_760_2251" x="0" y="0" width="88" height="88" filterUnits="userSpaceOnUse" color-interpolation-filters="sRGB">
<feFlood flood-opacity="0" result="BackgroundImageFix"/>
<feColorMatrix in="SourceAlpha" type="matrix" values="0 0 0 0 0 0 0 0 0 0 0 0 0 0 0 0 0 0 127 0" result="hardAlpha"/>
<feOffset dy="4"/>
<feGaussianBlur stdDeviation="2"/>
<feComposite in2="hardAlpha" operator="out"/>
<feColorMatrix type="matrix" values="0 0 0 0 0 0 0 0 0 0 0 0 0 0 0 0 0 0 0.25 0"/>
<feBlend mode="normal" in2="BackgroundImageFix" result="effect1_dropShadow_760_2251"/>
<feBlend mode="normal" in="SourceGraphic" in2="effect1_dropShadow_760_2251" result="shape"/>
</filter>
</defs>
</svg>
