<svg width="88" height="88" viewBox="0 0 88 88" fill="none" xmlns="http://www.w3.org/2000/svg">
<g filter="url(#filter0_d_760_2243)">
<rect x="4" width="80" height="80" rx="40" fill="#00A1BE" shape-rendering="crispEdges"/>
<path d="M41.73 24.9001C40.943 24.9896 40.279 25.506 40.0393 26.2128C39.9926 26.3538 39.9926 26.3728 39.9842 27.5217C39.9799 28.5315 39.982 28.703 40.0117 28.8173C40.0987 29.1526 40.349 29.4384 40.6821 29.5813C40.7796 29.6251 40.8963 29.6651 40.9409 29.6708C40.9833 29.6784 41.0236 29.6918 41.0299 29.6994C41.0512 29.7299 40.7712 29.8328 40.5314 29.8804C40.1942 29.949 39.6002 30.1319 39.2693 30.2672C38.2214 30.6977 37.3114 31.3493 36.6283 32.161C36.0174 32.8869 35.5868 33.7442 35.3895 34.6206C35.2686 35.1598 35.2601 35.2856 35.2601 36.5964C35.2601 37.8024 35.2601 37.8062 35.3089 37.9586C35.4658 38.4483 35.8668 38.8426 36.4522 39.0865C36.546 39.1257 36.6071 39.2175 36.6071 39.3191V43.0227V46.631C36.6071 46.7913 36.5133 46.9367 36.3674 47.0028C35.7352 47.2924 35.347 47.7439 35.2707 48.2793C35.2431 48.4832 35.2431 52.0993 35.2707 52.3622C35.4107 53.6616 36.431 54.7228 37.8395 55.0296C38.2511 55.1191 38.1747 55.1172 44.1482 55.1115L49.6966 55.1059C49.7593 55.1058 49.8218 55.0998 49.8834 55.0881L50.0199 55.0619C50.7115 54.9305 51.2587 54.6638 51.7551 54.2198C52.3151 53.7168 52.6291 53.1415 52.7267 52.4289C52.7415 52.326 52.75 51.5639 52.75 50.3027C52.75 48.1955 52.75 48.2012 52.6418 47.9421C52.4785 47.5515 52.0436 47.159 51.5536 46.9609C51.4691 46.9275 51.4136 46.8459 51.4137 46.7551L51.4157 43.0227L51.4177 39.3902C51.4178 39.238 51.5077 39.1003 51.6469 39.0389C52.0627 38.856 52.3915 38.5721 52.5718 38.2444C52.7436 37.93 52.7373 37.9815 52.7458 36.7488C52.7542 35.316 52.7224 34.9426 52.5273 34.2815C52.2197 33.2298 51.6257 32.3058 50.7581 31.5284C49.7972 30.6673 48.7068 30.1357 47.311 29.8442C47.1732 29.8156 46.9801 29.7337 46.9801 29.7032C46.9801 29.6956 47.0268 29.6803 47.082 29.667C47.3959 29.6003 47.7162 29.3736 47.8668 29.1126C48.0344 28.8249 48.0302 28.8592 48.0302 27.5846C48.0302 26.4681 48.0302 26.4491 47.9814 26.2814C47.9262 26.0852 47.782 25.7975 47.6653 25.6546C47.3832 25.304 46.961 25.0449 46.4922 24.9325L46.4228 24.9163C46.3491 24.8992 46.2737 24.8905 46.1981 24.8904L44.0952 24.8868C42.8755 24.8849 41.8127 24.8906 41.73 24.9001ZM46.3013 26.1385C46.4498 26.2014 46.5686 26.3081 46.6386 26.4414C46.6748 26.5103 46.694 26.5868 46.6945 26.6646L46.7001 27.5312C46.7036 28.0753 46.2636 28.5181 45.7196 28.5181H43.9997H42.2704C41.7316 28.5181 41.2958 28.0795 41.2994 27.5408C41.3057 26.6548 41.31 26.5577 41.3439 26.4757C41.3906 26.3709 41.5178 26.2338 41.6281 26.1728C41.7936 26.0794 41.766 26.0813 44.0422 26.0852L46.0579 26.0887C46.1416 26.0889 46.2243 26.1058 46.3013 26.1385ZM45.6501 29.8575C45.7774 30.1528 46.0043 30.4424 46.2844 30.6615C46.5177 30.8463 46.751 30.9359 47.4914 31.1264C48.3505 31.3474 49.1735 31.7856 49.8226 32.3667C50.5248 32.9955 51.0021 33.7461 51.2439 34.6035C51.3987 35.156 51.403 35.2017 51.403 36.5487V37.646C51.403 37.7135 51.3854 37.7799 51.3521 37.8386C51.2842 37.9643 51.1548 38.0767 51.0148 38.1358C50.935 38.1697 50.8492 38.1873 50.7625 38.1874L45.0986 38.193L42.9487 38.1959C42.6171 38.1964 42.3485 38.4653 42.3485 38.7969C42.3485 39.1284 42.6172 39.3971 42.9487 39.3971H44.6892H49.0772C49.6295 39.3971 50.0772 39.8448 50.0772 40.3971V43.0265V45.656C50.0772 46.2083 49.6295 46.656 49.0772 46.656H44.6892H42.9487C42.6172 46.656 42.3485 46.9247 42.3485 47.2562C42.3485 47.5878 42.6171 47.8567 42.9487 47.8572L45.1092 47.8601L50.7988 47.8657C50.8755 47.8658 50.9512 47.8821 51.0212 47.9135C51.1569 47.9725 51.299 48.1002 51.3563 48.2145C51.387 48.2733 51.403 48.3387 51.403 48.405V50.3427V52.2339C51.403 52.3316 51.3887 52.4288 51.3605 52.5224L51.3542 52.5432C51.1633 53.1891 50.6054 53.6902 49.8863 53.8616L49.8224 53.8772C49.745 53.896 49.6658 53.9055 49.5862 53.9055H43.9997H38.4147C38.3342 53.9055 38.254 53.8958 38.1759 53.8765L38.1153 53.8616C37.7441 53.7702 37.4365 53.6082 37.1777 53.3682C36.9041 53.1148 36.7344 52.8423 36.6325 52.4899C36.5986 52.3737 36.5965 52.1965 36.5965 50.3427V48.4432C36.5965 48.3643 36.6154 48.2865 36.6516 48.2164C36.7216 48.0811 36.8362 47.9783 36.9868 47.9154C37.1013 47.8678 37.1247 47.8659 37.5256 47.8601C37.7576 47.8559 37.9435 47.6666 37.9435 47.4346V43.0265V38.6185C37.9435 38.3865 37.7576 38.1972 37.5256 38.193C37.1162 38.1872 37.1035 38.1853 36.9868 38.1339C36.8468 38.0729 36.7068 37.9453 36.6431 37.8195C36.5965 37.73 36.5965 37.7185 36.5965 36.5678C36.5965 35.3046 36.6028 35.2284 36.7238 34.7388C36.8977 34.0338 37.2923 33.3041 37.8056 32.7383C38.0114 32.5096 38.4781 32.1038 38.7284 31.9361C39.2926 31.557 39.9417 31.2655 40.5993 31.0997C41.2527 30.9359 41.346 30.9035 41.5645 30.7701C41.7512 30.6558 41.8954 30.532 42.0354 30.3643C42.1542 30.2252 42.3388 29.9223 42.3939 29.7794C42.408 29.7427 42.4432 29.7184 42.4825 29.7184H44.004H45.4395C45.5312 29.7184 45.6141 29.7732 45.6501 29.8575Z" fill="#F9FEFE" stroke="#F9FEFE"/>
</g>
<defs>
<filter id="filter0_d_760_2243" x="0" y="0" width="88" height="88" filterUnits="userSpaceOnUse" color-interpolation-filters="sRGB">
<feFlood flood-opacity="0" result="BackgroundImageFix"/>
<feColorMatrix in="SourceAlpha" type="matrix" values="0 0 0 0 0 0 0 0 0 0 0 0 0 0 0 0 0 0 127 0" result="hardAlpha"/>
<feOffset dy="4"/>
<feGaussianBlur stdDeviation="2"/>
<feComposite in2="hardAlpha" operator="out"/>
<feColorMatrix type="matrix" values="0 0 0 0 0 0 0 0 0 0 0 0 0 0 0 0 0 0 0.25 0"/>
<feBlend mode="normal" in2="BackgroundImageFix" result="effect1_dropShadow_760_2243"/>
<feBlend mode="normal" in="SourceGraphic" in2="effect1_dropShadow_760_2243" result="shape"/>
</filter>
</defs>
</svg>
