<svg width="88" height="88" viewBox="0 0 88 88" fill="none" xmlns="http://www.w3.org/2000/svg">
<g filter="url(#filter0_d_760_2260)">
<rect x="4" width="80" height="80" rx="40" fill="#00A1BE" shape-rendering="crispEdges"/>
<path d="M32.5974 23.4994L32.5884 23.5036C32.063 23.7509 31.5481 24.2339 31.2767 24.7453C31.2766 24.7455 31.2765 24.7456 31.2764 24.7458L31.0664 25.1393L31.0193 25.2275V25.3276V39.9964V54.6653V54.7632L31.0646 54.8501L31.275 55.2541L31.2774 55.2586L31.2774 55.2585C31.4349 55.5517 31.6758 55.8296 31.9346 56.0504C32.1905 56.2689 32.4951 56.4582 32.795 56.5416C32.8553 56.5583 32.9331 56.5637 32.9737 56.5664L32.9768 56.5666C33.0363 56.5707 33.1135 56.5744 33.2055 56.5779C33.3901 56.5849 33.6451 56.5913 33.9591 56.5972C34.5876 56.6089 35.4598 56.6187 36.4937 56.6265C38.5618 56.6422 41.2811 56.65 44 56.65C46.7188 56.65 49.4381 56.6422 51.5062 56.6265C52.5401 56.6187 53.4124 56.6089 54.0408 56.5972C54.3548 56.5913 54.6098 56.5849 54.7944 56.5779C54.8864 56.5744 54.9636 56.5707 55.0231 56.5666L55.0262 56.5664C55.0668 56.5637 55.1447 56.5583 55.2049 56.5416M32.5974 23.4994L55.2049 56.5416M32.5974 23.4994L32.6065 23.4956M32.5974 23.4994L32.6065 23.4956M55.2049 56.5416C55.5048 56.4582 55.8094 56.2689 56.0654 56.0504C56.3241 55.8296 56.5651 55.5517 56.7225 55.2585L56.7249 55.2541L56.7249 55.2541L56.9353 54.8501L56.9806 54.7632V54.6653V39.9964V25.3276V25.2275L56.9335 25.1393L56.7252 24.749C56.7248 24.7482 56.7244 24.7475 56.724 24.7467C56.5859 24.4816 56.316 24.1437 56.1025 23.9643C55.7927 23.6996 55.5211 23.5167 55.1115 23.4257C54.7358 23.3423 54.2596 23.3409 53.5574 23.3598M55.2049 56.5416L32.6065 23.4956M32.6065 23.4956C32.7764 23.4257 32.9977 23.3946 33.2639 23.3774C33.54 23.3595 33.9086 23.3549 34.3986 23.3597L34.4036 23.3598C35.0339 23.3739 35.4108 23.3832 35.6732 23.4279C35.9813 23.4804 36.15 23.5842 36.3574 23.7248C36.9332 24.1007 37.3462 24.7092 37.4925 25.3848C37.5156 25.487 37.5302 25.6683 37.5421 25.8706C37.555 26.0897 37.5665 26.3751 37.5761 26.7096C37.5954 27.3791 37.6074 28.2536 37.6074 29.204V32.3479L37.7662 32.5076C37.9746 32.7099 38.2897 32.7688 38.6293 32.5913L38.6359 32.5878L38.6426 32.5846C38.7183 32.5486 38.7751 32.4974 38.8225 32.363C38.8781 32.2055 38.9121 31.9535 38.9121 31.5414C38.9121 31.2136 38.9176 30.9689 38.9611 30.773C39.0123 30.5422 39.1115 30.3937 39.2348 30.2461L39.2347 30.2461L39.2373 30.2431L39.4669 29.9737L39.5867 29.8332H39.7713H44H48.2286H48.4132L48.533 29.9737L48.7626 30.2431L48.7626 30.2431L48.7652 30.2461C48.8884 30.3937 48.9876 30.5422 49.0388 30.773C49.0823 30.9689 49.0878 31.2136 49.0878 31.5414C49.0878 31.9535 49.1218 32.2055 49.1774 32.363C49.2249 32.4974 49.2816 32.5486 49.3573 32.5846L49.364 32.5878L49.3706 32.5913C49.7102 32.7688 50.0253 32.7099 50.2337 32.5076L50.3925 32.3479V29.204C50.3925 28.2536 50.4045 27.3791 50.4238 26.7096C50.4334 26.3751 50.4449 26.0897 50.4578 25.8706C50.4696 25.6701 50.4841 25.4903 50.5068 25.3876C50.6524 24.7117 51.0649 24.1027 51.6404 23.7262C51.8481 23.5819 52.021 23.48 52.3252 23.428C52.5863 23.3833 52.9556 23.3739 53.5574 23.3598M53.5574 23.3598C53.5575 23.3598 53.5576 23.3598 53.5576 23.3598L53.567 23.7597L53.5562 23.3599C53.5566 23.3598 53.557 23.3598 53.5574 23.3598ZM35.2163 25.6416C35.2075 25.6397 35.1954 25.6373 35.1794 25.6346C35.1247 25.6255 35.047 25.6164 34.9494 25.6084C34.7554 25.5927 34.5058 25.5833 34.2512 25.5833C33.9812 25.5833 33.7815 25.5894 33.6295 25.6054C33.4752 25.6217 33.3986 25.6457 33.3603 25.6646C33.359 25.6653 33.3576 25.6659 33.3561 25.6665C33.3353 25.6755 33.2945 25.693 33.2512 25.9293C33.251 25.9343 33.2501 25.9508 33.249 25.9851C33.2475 26.0357 33.2459 26.1076 33.2444 26.2008C33.2415 26.3868 33.2388 26.652 33.2364 26.988C33.2316 27.6599 33.2281 28.6117 33.2257 29.7736C33.2209 32.0971 33.2209 35.2588 33.2257 38.6973L33.2257 38.6984L33.207 54.2718L41.783 54.4124C42.5126 54.4137 43.2562 54.4144 44 54.4144C46.6721 54.4144 49.3437 54.406 51.3617 54.3891C52.371 54.3807 53.2155 54.3702 53.8144 54.3577C54.1143 54.3514 54.3502 54.3446 54.5136 54.3374C54.5644 54.3352 54.6067 54.333 54.6408 54.3309C54.6588 54.3015 54.6846 54.2486 54.7104 54.1573C54.7378 54.0605 54.7598 53.9387 54.7742 53.791V38.6979V38.6973C54.779 35.2588 54.779 32.0971 54.7742 29.7736C54.7719 28.6117 54.7683 27.6599 54.7635 26.988C54.7611 26.652 54.7584 26.3868 54.7555 26.2008C54.754 26.1076 54.7524 26.0357 54.7509 25.9851C54.7498 25.9508 54.7489 25.9343 54.7487 25.9293C54.7054 25.693 54.6646 25.6755 54.6438 25.6665C54.6423 25.6659 54.6409 25.6653 54.6396 25.6646C54.6013 25.6457 54.5247 25.6217 54.3704 25.6054C54.2184 25.5894 54.0187 25.5833 53.7488 25.5833C53.4941 25.5833 53.2445 25.5927 53.0505 25.6084C52.9529 25.6164 52.8752 25.6255 52.8205 25.6346C52.8045 25.6373 52.7924 25.6397 52.7836 25.6416C52.7804 25.6453 52.7772 25.6517 52.7712 25.6653C52.7461 25.7223 52.7134 25.8446 52.688 26.11C52.6376 26.6358 52.6276 27.5602 52.6276 29.2521C52.6276 30.3645 52.618 31.2159 52.5987 31.8235C52.589 32.1269 52.5768 32.3733 52.5618 32.5627C52.5478 32.7377 52.5294 32.8964 52.4978 33.0063C52.454 33.1652 52.3625 33.3433 52.2697 33.4967C52.1722 33.6577 52.0538 33.8235 51.9362 33.9586L51.9352 33.9597C51.363 34.6126 50.6624 34.9314 49.8124 34.9425V34.9425H49.8071C48.2445 34.9425 47.0181 33.8734 46.8832 32.3385L46.8619 32.1242H43.9904H41.1469C41.1369 32.7555 40.8533 33.4828 40.4293 33.9753C40.026 34.4497 39.4358 34.7541 38.8282 34.879C38.2202 35.004 37.5557 34.9573 36.9932 34.6805C36.6669 34.522 36.3431 34.2545 36.0841 33.9677C35.8284 33.6844 35.5985 33.341 35.503 33.0094C35.4708 32.8994 35.4522 32.7393 35.4381 32.5627C35.4231 32.3733 35.4109 32.1269 35.4012 31.8235C35.3819 31.2159 35.3723 30.3645 35.3723 29.2521C35.3723 27.5602 35.3623 26.6358 35.3119 26.11C35.2865 25.8446 35.2538 25.7223 35.2287 25.6653C35.2228 25.6517 35.2195 25.6453 35.2163 25.6416ZM35.2345 25.6462C35.2345 25.6461 35.2333 25.6457 35.231 25.6451C35.2333 25.6459 35.2346 25.6462 35.2345 25.6462Z" fill="#F9FEFE" stroke="#F9FEFE" stroke-width="0.8"/>
</g>
<defs>
<filter id="filter0_d_760_2260" x="0" y="0" width="88" height="88" filterUnits="userSpaceOnUse" color-interpolation-filters="sRGB">
<feFlood flood-opacity="0" result="BackgroundImageFix"/>
<feColorMatrix in="SourceAlpha" type="matrix" values="0 0 0 0 0 0 0 0 0 0 0 0 0 0 0 0 0 0 127 0" result="hardAlpha"/>
<feOffset dy="4"/>
<feGaussianBlur stdDeviation="2"/>
<feComposite in2="hardAlpha" operator="out"/>
<feColorMatrix type="matrix" values="0 0 0 0 0 0 0 0 0 0 0 0 0 0 0 0 0 0 0.25 0"/>
<feBlend mode="normal" in2="BackgroundImageFix" result="effect1_dropShadow_760_2260"/>
<feBlend mode="normal" in="SourceGraphic" in2="effect1_dropShadow_760_2260" result="shape"/>
</filter>
</defs>
</svg>
