<svg width="56" height="56" viewBox="0 0 56 56" fill="none" xmlns="http://www.w3.org/2000/svg">
<g clip-path="url(#clip0_1226_2011)">
<path d="M0 12C0 5.37258 5.37258 0 12 0H44C50.6274 0 56 5.37258 56 12V44C56 50.6274 50.6274 56 44 56H12C5.37258 56 0 50.6274 0 44V12Z" fill="#00A1BE"/>
<path d="M45.1734 43.8667C46.5423 46.4801 47.2268 56.0001 47.2268 56.0001H8.77344C8.77344 56.0001 9.45794 46.4801 10.8268 43.8667C12.8801 39.9467 28.0001 34.9067 28.0001 34.9067C28.0001 34.9067 43.1201 39.9467 45.1734 43.8667Z" fill="#005E88"/>
<path d="M43.9544 32.7435L13.6291 29.0787C12.1341 21.1418 13.9074 16.1412 18.9491 14.0768C21.2799 6.44011 30.3513 7.06134 32.9226 7.68387C41.6727 9.80266 45.35 18.1559 43.9544 32.7435Z" fill="url(#paint0_linear_1226_2011)"/>
<path d="M23.5199 37.1467V25.9467C18.8493 25.8769 19.7603 17.7834 24.4533 20.2533C25.2933 20.6267 27.4399 19.6 26.6933 17.08C31.7333 20.8133 38.7564 14.2613 39.1999 18.2933C40.0726 26.2287 38.384 32.7511 33.9064 32.7514C33.4293 32.7696 32.9515 32.7412 32.4799 32.6667V37.1467C31.0183 38.0178 29.5567 38.4534 28.0951 38.4534C26.6335 38.4534 25.1085 38.0178 23.5199 37.1467Z" fill="url(#paint1_linear_1226_2011)"/>
<path d="M32.4796 32.6667V34.1601C29.6796 34.1601 27.5018 32.8223 25.9463 30.1467C27.813 31.3912 29.9907 32.2312 32.4796 32.6667Z" fill="#584840"/>
<path d="M27.9944 38.2621C29.2714 38.201 32.4805 37.5402 32.4805 36.1126V34.9067C32.8229 34.9067 33.8031 35.7154 34.3073 36.4001C36.3001 39.1067 34.0896 41.5334 32.2868 41.5334C30.0121 41.5334 28.5045 39.6328 28.0005 38.7185C27.4965 39.6331 25.989 41.5334 23.7143 41.5334C21.9115 41.5334 19.701 39.1067 21.6938 36.4001C22.198 35.7154 23.1782 34.9067 23.5205 34.9067V36.1126C23.5205 37.5402 26.6453 38.201 27.9944 38.2621Z" fill="#C9FBF3"/>
</g>
<defs>
<linearGradient id="paint0_linear_1226_2011" x1="28.6793" y1="7.34229" x2="28.6793" y2="32.7435" gradientUnits="userSpaceOnUse">
<stop stop-color="#1D0024"/>
<stop offset="1" stop-color="#100014"/>
</linearGradient>
<linearGradient id="paint1_linear_1226_2011" x1="29.9316" y1="16.9275" x2="29.9316" y2="38.4534" gradientUnits="userSpaceOnUse">
<stop stop-color="#F5C8AD"/>
<stop offset="1" stop-color="#EB965E"/>
</linearGradient>
<clipPath id="clip0_1226_2011">
<path d="M0 12C0 5.37258 5.37258 0 12 0H44C50.6274 0 56 5.37258 56 12V44C56 50.6274 50.6274 56 44 56H12C5.37258 56 0 50.6274 0 44V12Z" fill="white"/>
</clipPath>
</defs>
</svg>
