<svg width="20" height="20" viewBox="0 0 20 20" fill="none" xmlns="http://www.w3.org/2000/svg">
<rect width="20" height="20" rx="10" fill="#00A1BE"/>
<path d="M7.13814 14.5V5.77273H10.4109C11.0813 5.77273 11.6438 5.89773 12.0984 6.14773C12.5558 6.39773 12.9009 6.74148 13.1339 7.17898C13.3697 7.61364 13.4876 8.10795 13.4876 8.66193C13.4876 9.22159 13.3697 9.71875 13.1339 10.1534C12.8981 10.5881 12.5501 10.9304 12.0898 11.1804C11.6296 11.4276 11.0629 11.5511 10.3896 11.5511H8.22053V10.2514H10.1765C10.5685 10.2514 10.8896 10.1832 11.1396 10.0469C11.3896 9.91051 11.5742 9.72301 11.6935 9.48438C11.8157 9.24574 11.8768 8.97159 11.8768 8.66193C11.8768 8.35227 11.8157 8.07955 11.6935 7.84375C11.5742 7.60795 11.3881 7.42472 11.1353 7.29403C10.8853 7.16051 10.5629 7.09375 10.168 7.09375H8.71911V14.5H7.13814Z" fill="#C9FBF3"/>
</svg>
